REM DIRINDEX 1\2,1\3,1\4,1\5
REM DIRNAME "folder01","folder02","folder03","folder04","folder05"
TITLE ""
FILE "1Q_t_0378-0387.mp3" MP3
  TRACK 01 AUDIO
    TITLE "0:"
    INDEX 01 00:00:00
  TRACK 02 AUDIO
    TITLE "3:cjc172_2058"
    INDEX 01 00:00:16
  TRACK 03 AUDIO
    TITLE "0:"
    INDEX 01 00:01:53
  TRACK 04 AUDIO
    TITLE "4:cjc172_2059"
    INDEX 01 00:01:70
  TRACK 05 AUDIO
    TITLE "0:"
    INDEX 01 00:05:27
  TRACK 06 AUDIO
    TITLE "5:cjc172_2060"
    INDEX 01 00:05:41
  TRACK 07 AUDIO
    TITLE "0:"
    INDEX 01 00:09:39
  TRACK 08 AUDIO
    TITLE "3:cjc172_2061"
    INDEX 01 00:10:19
  TRACK 09 AUDIO
    TITLE "0:"
    INDEX 01 00:11:28
  TRACK 10 AUDIO
    TITLE "4:cjc172_2062"
    INDEX 01 00:11:45
  TRACK 11 AUDIO
    TITLE "0:"
    INDEX 01 00:13:11
  TRACK 12 AUDIO
    TITLE "5:cjc172_2063"
    INDEX 01 00:13:25
  TRACK 13 AUDIO
    TITLE "0:"
    INDEX 01 00:20:19
  TRACK 14 AUDIO
    TITLE "3:cjc172_2064"
    INDEX 01 00:20:74
  TRACK 15 AUDIO
    TITLE "0:"
    INDEX 01 00:22:28
  TRACK 16 AUDIO
    TITLE "4:cjc172_2065"
    INDEX 01 00:22:51
  TRACK 17 AUDIO
    TITLE "0:"
    INDEX 01 00:25:34
  TRACK 18 AUDIO
    TITLE "5:cjc172_2066"
    INDEX 01 00:25:47
  TRACK 19 AUDIO
    TITLE "0:"
    INDEX 01 00:32:08
  TRACK 20 AUDIO
    TITLE "3:cjc172_2067"
    INDEX 01 00:32:73
  TRACK 21 AUDIO
    TITLE "0:"
    INDEX 01 00:34:11
  TRACK 22 AUDIO
    TITLE "4:cjc172_2068"
    INDEX 01 00:34:27
  TRACK 23 AUDIO
    TITLE "0:"
    INDEX 01 00:36:61
  TRACK 24 AUDIO
    TITLE "5:cjc172_2069"
    INDEX 01 00:37:00
  TRACK 25 AUDIO
    TITLE "0:"
    INDEX 01 00:43:55
  TRACK 26 AUDIO
    TITLE "3:cjc172_2070"
    INDEX 01 00:44:33
  TRACK 27 AUDIO
    TITLE "0:"
    INDEX 01 00:45:52
  TRACK 28 AUDIO
    TITLE "4:cjc172_2071"
    INDEX 01 00:45:68
  TRACK 29 AUDIO
    TITLE "0:"
    INDEX 01 00:48:43
  TRACK 30 AUDIO
    TITLE "5:cjc172_2072"
    INDEX 01 00:48:60
  TRACK 31 AUDIO
    TITLE "0:"
    INDEX 01 00:54:37
  TRACK 32 AUDIO
    TITLE "3:cjc172_2073"
    INDEX 01 00:55:15
  TRACK 33 AUDIO
    TITLE "0:"
    INDEX 01 00:56:44
  TRACK 34 AUDIO
    TITLE "4:cjc172_2074"
    INDEX 01 00:56:60
  TRACK 35 AUDIO
    TITLE "0:"
    INDEX 01 00:59:72
  TRACK 36 AUDIO
    TITLE "5:cjc172_2075"
    INDEX 01 01:00:12
  TRACK 37 AUDIO
    TITLE "0:"
    INDEX 01 01:06:25
  TRACK 38 AUDIO
    TITLE "3:cjc172_2076"
    INDEX 01 01:07:03
  TRACK 39 AUDIO
    TITLE "0:"
    INDEX 01 01:08:28
  TRACK 40 AUDIO
    TITLE "4:cjc172_2077"
    INDEX 01 01:08:45
  TRACK 41 AUDIO
    TITLE "0:"
    INDEX 01 01:11:18
  TRACK 42 AUDIO
    TITLE "5:cjc172_2078"
    INDEX 01 01:11:32
  TRACK 43 AUDIO
    TITLE "0:"
    INDEX 01 01:17:44
  TRACK 44 AUDIO
    TITLE "3:cjc172_2079"
    INDEX 01 01:18:24
  TRACK 45 AUDIO
    TITLE "0:"
    INDEX 01 01:20:13
  TRACK 46 AUDIO
    TITLE "4:cjc172_2080"
    INDEX 01 01:20:33
  TRACK 47 AUDIO
    TITLE "0:"
    INDEX 01 01:22:20
  TRACK 48 AUDIO
    TITLE "5:cjc172_2081"
    INDEX 01 01:22:38
  TRACK 49 AUDIO
    TITLE "0:"
    INDEX 01 01:29:14
  TRACK 50 AUDIO
    TITLE "3:cjc172_2082"
    INDEX 01 01:29:65
  TRACK 51 AUDIO
    TITLE "0:"
    INDEX 01 01:31:13
  TRACK 52 AUDIO
    TITLE "4:cjc172_2083"
    INDEX 01 01:31:29
  TRACK 53 AUDIO
    TITLE "0:"
    INDEX 01 01:34:09
  TRACK 54 AUDIO
    TITLE "5:cjc172_2084"
    INDEX 01 01:34:25
  TRACK 55 AUDIO
    TITLE "0:"
    INDEX 01 01:40:55
  TRACK 56 AUDIO
    TITLE "3:cjc172_2085"
    INDEX 01 01:41:33
  TRACK 57 AUDIO
    TITLE "0:"
    INDEX 01 01:42:54
  TRACK 58 AUDIO
    TITLE "4:cjc172_2086"
    INDEX 01 01:42:72
  TRACK 59 AUDIO
    TITLE "0:"
    INDEX 01 01:45:39
  TRACK 60 AUDIO
    TITLE "5:cjc172_2087"
    INDEX 01 01:45:54
  TRACK 61 AUDIO
    TITLE "0:"
    INDEX 01 01:52:37
